<?xml version="1.0" encoding="utf-8"?>
<!-- Generator: Adobe Illustrator 18.1.1, SVG Export Plug-In . SVG Version: 6.00 Build 0)  -->
<svg version="1.1" id="Layer_1" xmlns="http://www.w3.org/2000/svg" xmlns:xlink="http://www.w3.org/1999/xlink" x="0px" y="0px"
	 viewBox="-695.7 830 173.3 137.3" enable-background="new -695.7 830 173.3 137.3" xml:space="preserve">
<g>
	<rect x="-689" y="835.9" fill="#FF0000" width="160" height="26.1"/>
	<rect x="-689" y="860.9" fill="#FFFFFF" width="160" height="65"/>
	<path d="M-527.5,927.4h-163v-93h163V927.4z M-687.5,919.4h157v-82h-157V919.4z"/>
	<line x1="-674" y1="940.9" x2="-584" y2="940.9"/>
	<line x1="-686" y1="960.9" x2="-572" y2="960.9"/>
	<rect x="-574" y="900.9" fill="#FC0000" width="26" height="7.1"/>
	<rect x="-574" y="906.9" fill="#FFFFFF" width="26" height="39"/>
	<path d="M-550,902.9v36h-22v-36H-550 M-548,900.9h-26v45h26V900.9L-548,900.9z"/>
	<line x1="-575" y1="945.9" x2="-547" y2="945.9"/>
	<line x1="-564" y1="945.9" x2="-558" y2="945.9"/>
	<g>
		<rect x="-674" y="905.9" fill="#FFFFFF" width="90" height="35"/>
		<rect x="-674" y="890.9" fill="#FC0000" width="90" height="14.9"/>
		<polygon points="-674,940.9 -584,940.9 -572,960.9 -686,960.9 		"/>
		<path d="M-586,892.9v46h-86v-46H-586 M-584,890.9h-90v50h90V890.9L-584,890.9z"/>
	</g>
	<path fill="#FFFFFF" d="M-557.8,943.4h-6.4c-0.6,0-1.1-0.5-1.1-1.1l0,0c0-0.6,0.5-1.1,1.1-1.1h6.4c0.6,0,1.1,0.5,1.1,1.1l0,0
		C-556.7,942.9-557.2,943.4-557.8,943.4z"/>
</g>
</svg>
